{"title":"Fifty.Shades.of.Grey.2015.HD720p.XviD-VAiN","uid":11793520,"size":1659065636,"categoryP":"video","categoryS":"movies","magnet":"?xt=urn:btih:a39862debb62a0b44b0549cdf3eda8ff38c1bcb5&amp;dn=Fifty.Shades.of.Grey.2015.HD720p.XviD-VAiN&amp;tr=udp%3A%2F%2Ftracker.openbittorrent.com%3A80&amp;tr=udp%3A%2F%2Fopen.demonii.com%3A1337&amp;tr=udp%3A%2F%2Ftracker.coppersurfer.tk%3A6969&amp;tr=udp%3A%2F%2Fexodus.desync.com%3A6969","seeders":5,"leechers":14,"uploader":"roflcopter2110","files":3,"time":1428040463,"description":" &lt;a href=&quot;http://i.imgur.com/FJi0aRt.png&quot; rel=&quot;nofollow&quot; target=&quot;_NEW&quot;&gt;http://i.imgur.com/FJi0aRt.png&lt;/a&gt;\n\nP R E S E N T S . . . . \n\nFifty.Shades.of.Grey.2015.HD720p.XviD-VAiN\n\niMDB........: http://www.imdb.com/title/tt2322441/\n\nPLOT........: Literature student Anastasia Steele's life changes forever when she meets handsome, yet tormented, billionaire Christian Grey.\n\nT E C H N i C A L . i N F O . . .  \nFormat                                   : AVI\nFormat/Info                              : Audio Video Interleave\nFile size                                : 1.51 GiB\nDuration                                 : 2h 0mn\nOverall bit rate                         : 1 799 Kbps\nWriting application                      : VirtualDubMod 1.5.10.2 (build 2540/release)\nWriting library                          : VirtualDubMod build 2540/release\n\nVideo\nID                                       : 0\nFormat                                   : MPEG-4 Visual\nFormat profile                           : Advanced Simple@L5\nFormat settings, BVOP                    : 1\nFormat settings, QPel                    : No\nFormat settings, GMC                     : No warppoints\nFormat settings, Matrix                  : Default (MPEG)\nCodec ID                                 : XVID\nCodec ID/Hint                            : XviD\nDuration                                 : 2h 0mn\nBit rate                                 : 1 598 Kbps\nWidth                                    : 1 280 pixels\nHeight                                   : 536 pixels\nDisplay aspect ratio                     : 2.40:1\nFrame rate                               : 23.976 fps\nColor space                              : YUV\nChroma subsampling                       : 4:2:0\nBit depth                                : 8 bits\nScan type                                : Progressive\nCompression mode                         : Lossy\nBits/(Pixel*Frame)                       : 0.097\nStream size                              : 1.34 GiB (89%)\nWriting library                          : XviD 1.2.1 (UTC 2008-12-04)\n\nAudio\nID                                       : 1\nFormat                                   : AC-3\nFormat/Info                              : Audio Coding 3\nMode extension                           : CM (complete main)\nFormat settings, Endianness              : Big\nCodec ID                                 : 2000\nDuration                                 : 2h 0mn\nBit rate mode                            : Constant\nBit rate                                 : 192 Kbps\nChannel(s)                               : 2 channels\nChannel positions                        : Front: L R\nSampling rate                            : 44.1 KHz\nBit depth                                : 16 bits\nCompression mode                         : Lossy\nStream size                              : 165 MiB (11%)\nAlignment                                : Split accross interleaves\nInterleave, duration                     : 42 ms (1.00 video frame)\nInterleave, preload duration             : 500 ms\n\nE N C O D E R S . N O T E S . . .       \n\nSOURCE......: :) Loft.2014.D.WEBRip.720p\n............:\nSAMPLE......: Yes 2 \nADDED NOTE..: W0RK D0NE... ancient chinese secret :wink: \n\nenjoy or no...\n\n\n\nS C R E E N . S H O T S . . .\n &lt;a href=&quot;\nhttp://i.imgur.com/RPTX68A.png&quot; rel=&quot;nofollow&quot; target=&quot;_NEW&quot;&gt;\nhttp://i.imgur.com/RPTX68A.png&lt;/a&gt;\n &lt;a href=&quot;\nhttp://i.imgur.com/3c2SKOZ.png&quot; rel=&quot;nofollow&quot; target=&quot;_NEW&quot;&gt;\nhttp://i.imgur.com/3c2SKOZ.png&lt;/a&gt;\n &lt;a href=&quot;\nhttp://i.imgur.com/xFrsiV1.png&quot; rel=&quot;nofollow&quot; target=&quot;_NEW&quot;&gt;\nhttp://i.imgur.com/xFrsiV1.png&lt;/a&gt;\n &lt;a href=&quot;\nhttp://i.imgur.com/3TLyHvq.png&quot; rel=&quot;nofollow&quot; target=&quot;_NEW&quot;&gt;\nhttp://i.imgur.com/3TLyHvq.png&lt;/a&gt;\n &lt;a href=&quot;\nhttp://i.imgur.com/luYtWCy.png&quot; rel=&quot;nofollow&quot; target=&quot;_NEW&quot;&gt;\nhttp://i.imgur.com/luYtWCy.png&lt;/a&gt;\n &lt;a href=&quot;\nhttp://i.imgur.com/YkkgvDV.png&quot; rel=&quot;nofollow&quot; target=&quot;_NEW&quot;&gt;\nhttp://i.imgur.com/YkkgvDV.png&lt;/a&gt;\n &lt;a href=&quot;\nhttp://i.imgur.com/QATgMQz.png&quot; rel=&quot;nofollow&quot; target=&quot;_NEW&quot;&gt;\nhttp://i.imgur.com/QATgMQz.png&lt;/a&gt;\n &lt;a href=&quot;\nhttp://i.imgur.com/dySPUMA.png&quot; rel=&quot;nofollow&quot; target=&quot;_NEW&quot;&gt;\nhttp://i.imgur.com/dySPUMA.png&lt;/a&gt;\n\n\nW4NTED worthy rival grps to add here. ;) SUCKAS!!!!!!!","torrent":{"xt":"urn:btih:a39862debb62a0b44b0549cdf3eda8ff38c1bcb5","amp;dn":"Fifty.Shades.of.Grey.2015.HD720p.XviD-VAiN","amp;tr":["udp%3A%2F%2Ftracker.openbittorrent.com%3A80","udp%3A%2F%2Fopen.demonii.com%3A1337","udp%3A%2F%2Ftracker.coppersurfer.tk%3A6969","udp%3A%2F%2Fexodus.desync.com%3A6969"],"infoHash":"a39862debb62a0b44b0549cdf3eda8ff38c1bcb5","infoHashBuffer":{"type":"Buffer","data":[163,152,98,222,187,98,160,180,75,5,73,205,243,237,168,255,56,193,188,181]},"announce":[],"urlList":[]}}